<?xml version="1.0" encoding="utf-8"?>
<!-- Generator: Adobe Illustrator 24.1.1, SVG Export Plug-In . SVG Version: 6.00 Build 0)  -->
<svg version="1.1" id="Слой_1" xmlns="http://www.w3.org/2000/svg" xmlns:xlink="http://www.w3.org/1999/xlink" x="0px" y="0px"
	 viewBox="0 0 1208 849" style="enable-background:new 0 0 1208 849;" xml:space="preserve">
<style type="text/css">
	.st0{fill:url(#SVGID_1_);}
	.st1{fill-rule:evenodd;clip-rule:evenodd;fill:url(#SVGID_2_);}
	.st2{fill:url(#SVGID_3_);}
	.st3{fill:url(#SVGID_4_);}
	.st4{fill-rule:evenodd;clip-rule:evenodd;}
	.st5{fill:#FFFFFF;}
</style>
<g>
	
		<radialGradient id="SVGID_1_" cx="297.8837" cy="820.8788" r="1" gradientTransform="matrix(-243.1741 -21.0441 -22.4475 259.3915 91438.4141 -206560.4531)" gradientUnits="userSpaceOnUse">
		<stop  offset="0.1349" style="stop-color:#F7EF7C"/>
		<stop  offset="0.9628" style="stop-color:#A4C967"/>
		<stop  offset="1" style="stop-color:#9BC565"/>
	</radialGradient>
	<path class="st0" d="M477,103C477,46.1,523.6,0,581,0c57.4,0,104,46.1,104,103c0,56.9-46.6,103-104,103S477,159.9,477,103z"/>
</g>
<radialGradient id="SVGID_2_" cx="298.1096" cy="821.0726" r="0.9998" gradientTransform="matrix(283.903 0 0 -399.733 -84051.7344 328782.2813)" gradientUnits="userSpaceOnUse">
	<stop  offset="0.2806" style="stop-color:#F7EF7C"/>
	<stop  offset="0.5853" style="stop-color:#EFEB7A"/>
	<stop  offset="0.881" style="stop-color:#BCD46D"/>
	<stop  offset="0.9628" style="stop-color:#A4C967"/>
	<stop  offset="1" style="stop-color:#9BC565"/>
</radialGradient>
<path class="st1" d="M458.5,189.7c-3.4-5.3-11.9-4.3-13.4,1.8c-3,12.2-5.9,25-9,38.6c-15.5,67.7-34.6,150.9-74.8,235.6
	c-3.6,6.5-6.9,13.3-9.9,20.1c-0.1,0.2-0.2,0.4-0.3,0.6c0,0.1-0.1,0.2-0.2,0.3c-13.8,31.5-21.6,66.3-21.8,103
	C328.1,732,440.8,848.2,580.8,849c140,0.9,254.3-113.8,255.2-256.2c0.4-34-5.9-66.4-17.4-96.1c-0.1-0.2-0.2-0.5-0.3-0.8
	c-0.1-0.2-0.1-0.4-0.2-0.5c-3.8-9.7-8.1-19-13-28C754.3,354.5,736.2,274.1,723,215c-1.9-8.3-3.6-16.2-5.4-23.7
	c-1.4-6.1-10-7.1-13.4-1.8c-25.9,40.1-71.3,66.7-122.9,66.7C529.7,256.1,484.4,229.6,458.5,189.7z"/>
<g>
	
		<radialGradient id="SVGID_3_" cx="298.0365" cy="821.0283" r="1" gradientTransform="matrix(891.3482 -49.956 -53.8022 -959.9755 -220889.9688 803650.75)" gradientUnits="userSpaceOnUse">
		<stop  offset="0" style="stop-color:#F7EF7C"/>
		<stop  offset="0" style="stop-color:#D2DE72"/>
		<stop  offset="0" style="stop-color:#BCD46D"/>
		<stop  offset="0.9628" style="stop-color:#A4C967"/>
		<stop  offset="1" style="stop-color:#9BC565"/>
	</radialGradient>
	<path class="st2" d="M728,590.5c0,80.9-65.6,146.5-146.5,146.5S435,671.4,435,590.5S500.6,444,581.5,444S728,509.6,728,590.5z"/>
</g>
<radialGradient id="SVGID_4_" cx="298.2227" cy="821.3871" r="1" gradientTransform="matrix(70.859 30.1849 39.3131 -92.2875 -52852.332 67375.8359)" gradientUnits="userSpaceOnUse">
	<stop  offset="0" style="stop-color:#D47863"/>
	<stop  offset="0.159" style="stop-color:#CC7460"/>
	<stop  offset="0.3243" style="stop-color:#B96C5A"/>
	<stop  offset="0.4925" style="stop-color:#9E5F50"/>
	<stop  offset="0.6627" style="stop-color:#7D4F43"/>
	<stop  offset="0.8327" style="stop-color:#593B32"/>
	<stop  offset="1" style="stop-color:#37241C"/>
</radialGradient>
<path class="st3" d="M685,590c0,56.9-46.1,103-103,103s-103-46.1-103-103s46.1-103,103-103S685,533.1,685,590z"/>
<path class="st4" d="M686,590c0,57.4-46.6,104-104,104s-104-46.6-104-104s46.6-104,104-104S686,532.6,686,590z M582,692.9
	c56.8,0,102.9-46.1,102.9-102.9S638.8,487.1,582,487.1S479.1,533.2,479.1,590S525.2,692.9,582,692.9z"/>
<path class="st5" d="M530.2,541.9c-6.3,8.9-5.7,20.1,1.4,25c7.1,4.8,17.9,1.5,24.2-7.5c6.3-8.9,5.7-20.1-1.4-25
	C547.3,529.6,536.5,532.9,530.2,541.9z"/>
</svg>
