<?xml version="1.0" encoding="UTF-8"?>
<svg xmlns="http://www.w3.org/2000/svg" xmlns:xlink="http://www.w3.org/1999/xlink" viewBox="0 0 64 64" width="64px" height="64px">
<g id="surface330600178">
<path style=" stroke:none;fill-rule:nonzero;fill:rgb(96.862745%,93.725491%,48.627451%);fill-opacity:1;" d="M 32 0.5 C 31.464844 0.5 30.976562 0.785156 30.707031 1.246094 L 13.207031 31.246094 C 13 31.59375 12.949219 32.007812 13.054688 32.394531 C 13.160156 32.785156 13.417969 33.113281 13.769531 33.308594 L 19.351562 36.429688 C 20.074219 36.835938 20.984375 36.574219 21.390625 35.847656 C 21.792969 35.125 21.535156 34.214844 20.808594 33.808594 L 16.566406 31.433594 L 30.5 7.550781 L 30.5 35.78125 C 30.5 36.609375 31.171875 37.28125 32 37.28125 C 32.828125 37.28125 33.5 36.609375 33.5 35.78125 L 33.5 7.550781 L 47.433594 31.441406 L 43.183594 33.816406 C 42.460938 34.214844 42.207031 35.128906 42.609375 35.847656 C 42.886719 36.339844 43.394531 36.621094 43.921875 36.621094 C 44.171875 36.621094 44.421875 36.558594 44.652344 36.429688 L 50.234375 33.308594 C 50.585938 33.113281 50.84375 32.785156 50.949219 32.394531 C 51.054688 32.003906 51 31.589844 50.800781 31.246094 L 33.300781 1.246094 C 33.023438 0.785156 32.535156 0.5 32 0.5 Z M 11.746094 23.085938 C 11.644531 23.097656 11.542969 23.113281 11.445312 23.144531 C 9.734375 23.660156 8.191406 24.238281 6.84375 24.875 C 6.09375 25.230469 5.773438 26.121094 6.128906 26.871094 C 6.386719 27.414062 6.925781 27.730469 7.492188 27.730469 C 7.707031 27.730469 7.917969 27.683594 8.128906 27.585938 C 9.339844 27.015625 10.746094 26.484375 12.316406 26.015625 C 13.105469 25.78125 13.554688 24.945312 13.316406 24.152344 C 13.105469 23.453125 12.441406 23.023438 11.746094 23.085938 Z M 52.253906 23.085938 C 51.558594 23.023438 50.890625 23.453125 50.679688 24.148438 C 50.441406 24.945312 50.890625 25.78125 51.683594 26.019531 C 57.125 27.65625 60.5 29.949219 60.5 32 C 60.5 33.890625 57.523438 36.050781 52.742188 37.648438 C 47.21875 39.484375 39.855469 40.5 32 40.5 C 24.144531 40.5 16.78125 39.484375 11.257812 37.648438 C 6.476562 36.050781 3.5 33.890625 3.5 32 C 3.5 31.171875 2.828125 30.5 2 30.5 C 1.171875 30.5 0.5 31.171875 0.5 32 C 0.5 39.46875 16.730469 43.5 32 43.5 C 47.269531 43.5 63.5 39.46875 63.5 32 C 63.5 28.421875 59.609375 25.273438 52.550781 23.144531 C 52.449219 23.113281 52.351562 23.097656 52.253906 23.085938 Z M 23.714844 46.132812 C 23.429688 46.117188 23.132812 46.179688 22.867188 46.335938 C 22.148438 46.75 21.910156 47.667969 22.324219 48.386719 L 30.710938 62.753906 C 30.976562 63.214844 31.464844 63.5 32 63.5 C 32.535156 63.5 33.023438 63.214844 33.296875 62.753906 L 41.679688 48.386719 C 42.09375 47.667969 41.855469 46.75 41.140625 46.335938 C 40.425781 45.921875 39.503906 46.160156 39.089844 46.875 L 32 59.023438 L 24.914062 46.875 C 24.652344 46.429688 24.195312 46.167969 23.71875 46.132812 Z M 23.714844 46.132812 "/>
</g>
</svg>
