<svg width="50" height="50" viewBox="0 0 50 50" fill="none" xmlns="http://www.w3.org/2000/svg">
<path d="M41.758 13.3617V30.6425C41.758 31.2692 41.2444 31.7625 40.6091 31.7625H16.2406C15.9838 31.7625 15.754 31.6825 15.5648 31.5359C15.9162 31.7625 16.3757 31.7892 16.7677 31.5759L31.9321 22.9355C32.2836 22.7355 32.4863 22.3755 32.4998 22.0021C32.4863 21.6288 32.2836 21.2687 31.9321 21.0687L16.7542 12.415C16.3487 12.1883 15.8621 12.2283 15.5107 12.4817C15.7135 12.3217 15.9567 12.2283 16.2406 12.2283H40.6227C41.2444 12.2283 41.758 12.735 41.758 13.3617Z" fill="#948d18"/>
<path d="M32.5004 22.002C32.4869 21.6287 32.2841 21.2687 31.9327 21.0687L16.7547 12.4149C16.3493 12.1883 15.8627 12.2283 15.5113 12.4816L15.4978 12.4949C15.2545 12.6949 15.0923 13.015 15.0923 13.3483V30.6291C15.0923 30.9758 15.2545 31.2958 15.5113 31.4958C15.3897 31.4024 15.2816 31.2958 15.2005 31.1491L9.8213 22.002L2.99594 10.3348C2.68508 9.78815 2.86078 9.10812 3.41492 8.7881L18.5929 0.14772C19.147 -0.15896 19.8363 0.0277147 20.1607 0.561072L26.986 12.2283L32.3517 21.3887C32.4598 21.5887 32.5004 21.7887 32.5004 22.002Z" fill="#f7ef7c"/>
<path d="M32.5002 22.002C32.4867 22.3754 32.2839 22.7354 31.9325 22.9354L16.7545 31.5758C16.3626 31.7891 15.9031 31.7625 15.5517 31.5358C15.5381 31.5224 15.5246 31.5091 15.4976 31.4958C15.2408 31.2958 15.0786 30.9758 15.0786 30.6291V13.3616C15.0786 13.015 15.2273 12.7083 15.4841 12.5083L15.4976 12.4949C15.849 12.2416 16.3356 12.2016 16.741 12.4283L31.9325 21.0687C32.2839 21.2687 32.4867 21.6287 32.5002 22.002Z" fill="#fffbc6"/>
<path d="M32.5 22.002C32.5135 22.202 32.4594 22.4153 32.3513 22.602L26.9856 31.7624L20.1602 43.4296C19.8494 43.9763 19.1466 44.1496 18.5924 43.843L3.41443 35.2026C2.86029 34.8959 2.68459 34.2025 2.99545 33.6558L9.82081 22.002L15.1865 12.8416C15.2676 12.7082 15.3757 12.5882 15.4839 12.5082C15.2406 12.7082 15.0784 13.0283 15.0784 13.3616V30.6424C15.0784 30.9891 15.2406 31.3091 15.4974 31.5091C15.5109 31.5224 15.5244 31.5358 15.5514 31.5491C15.9028 31.7758 16.3624 31.8024 16.7543 31.5891L31.9323 22.9354C32.2837 22.7354 32.4864 22.3753 32.5 22.002Z" fill="#d0c739"/>
</svg>
