<?xml version="1.0" encoding="utf-8"?>
<!-- Generator: Adobe Illustrator 26.0.3, SVG Export Plug-In . SVG Version: 6.00 Build 0)  -->
<svg version="1.0" id="katman_1" xmlns="http://www.w3.org/2000/svg" xmlns:xlink="http://www.w3.org/1999/xlink" x="0px" y="0px"
	 viewBox="25 175 100 100" style="enable-background:new 0 0 600 450;" xml:space="preserve">
<style type="text/css">
	.st0{fill:#f7ef7c;}
</style>
<g>
	<path class="st0" d="M58.6,186.8c-9.7,0.1-17.4,8-17.4,17.7v42.2c0,7.2,4.3,13.6,10.9,16.4s14.2,1.2,19.3-3.8l12-12
		c0.3,9.7,8.3,17.3,17.9,17.2c9.7-0.1,17.4-8,17.4-17.7v-42.2c0-7.2-4.3-13.6-10.9-16.4c-6.6-2.7-14.2-1.2-19.3,3.8l-12,12
		C76.2,194.3,68.3,186.6,58.6,186.8z"/>
	<ellipse cx="58.9" cy="246.6" rx="17.7" ry="17.7" fill="#073c20"/>
</g>
</svg>
