<svg version="1.2" xmlns="http://www.w3.org/2000/svg" viewBox="0 0 1000 1000" width="64" height="64">
	<title>pinksale-seeklogo</title>
	<defs>
		<clipPath clipPathUnits="userSpaceOnUse" id="cp1">
			<path d="m0 0h1000v1000h-1000z"/>
		</clipPath>
	</defs>
	<style>
		.s0 { fill: #f7ef7c } 
		.s1 { fill: #198754 } 
	</style>
	<g id="Page 1" clip-path="url(#cp1)">
		<path id="Path 1" fill-rule="evenodd" class="s0" d="m494.8 25.5h10.2c91.9 0.8 183.3 29.8 258.7 82.4 79.3 54.8 140.8 135 172.9 225.9 37.3 104.7 35.1 223-6.3 326.3-34.8 87.6-97.2 163.9-176 215.5-75.1 49.7-164.9 76.4-254.9 76.1h-1.7c-89.8-0.2-179.3-27.4-253.9-77.3-79.3-52.5-141.6-130-175.8-218.7-39.2-100.8-41.3-215.5-6-317.8 31.7-92.6 93.8-174.4 174.4-230.1 75.3-52.5 166.6-81.5 258.4-82.3zm244.2 418.4c-25.1 4.5-46.2 25.6-50.4 50.7-4.9 23.9 6.1 49.5 26 63.2 21.8 15.8 53.8 14.9 74.8-1.9 20.2-15.3 29.2-43.2 21.9-67.5-8.3-30.4-41.3-51-72.3-44.5zm-503.4 0.1c-22.8 4.2-42.4 22-48.6 44.3-6.9 22.5 0.3 48.4 17.9 64 19.7 19.3 52.8 22.3 76 7.4 21.5-13.1 33.5-39.7 28.9-64.5-5-33.7-40.7-58.6-74.2-51.2zm382.9-62c-10.9 3.6-19.1 14.7-18.3 26.3 0.1 33.9-0.1 67.7 0.1 101.6-0.1 11.5 9 21.8 20 24.5 15.3 4.5 32.7-8.4 32.7-24.4 0.4-30.8-0.1-61.6 0.2-92.4-0.1-8.4 0.8-17.9-4.6-25.1-6.4-9.6-19.1-14.1-30.1-10.5zm-256.1-5.9c-10.6 3.9-18 14.8-17.4 26.2q0 49.4 0 98.7c-0.8 14.1 11.1 27.6 25.4 27.7 15 1.3 29-12.6 27.5-27.7-0.2-34.1 0.1-68.1-0.2-102.2-0.1-16.9-19.8-29.1-35.3-22.7zm197.4-59.5c-10.4 5.3-5.9 22.3 5.5 22.1 33.8 0.3 67.5-0.2 101.3 0.2 5.4-0.1 12.1 0.4 15.4-4.8 6.6-6.9 0.3-19.4-9-19.1-32.9-0.4-65.9 0.1-98.9-0.2-4.7 0.5-10.2-0.9-14.3 1.8zm-240.9 0.5c-9.5 5.5-5.1 21 5.4 21.5q54.8 0.4 109.5 0c13-0.8 14-21.5 1-23.4-33.7-1-67.6 0.1-101.4-0.4-4.7 0.5-10.5-1-14.5 2.3zm473.2-63.7c-6.2 23.1-13 46.1-19.6 69.1-17.9 6.7-36.3 12-54 19.3 17.9 6.9 36 12.9 54 19.6 7.5 20.6 11.9 42.4 21 62.4 6.2-20.4 12.2-41 19.3-61.1 16.7-9.3 36.4-13.3 54.1-20.7-16.5-7.5-34.2-11.9-51.1-18.5-4-1.2-4-5.9-5.3-9.1-3.9-15.1-8.7-29.9-12.6-45-1.6-5.4-2.2-11.4-5.8-16zm-420.7 363.1c-11 6.1-12 23-1.3 29.9 29.3 22.1 65.7 33.4 102 36.8 53.4 4.7 107-9.3 154.4-33.2 9.2-3.8 14-15.9 8.8-24.6-4.4-8.8-16-12.5-24.5-7.5-38.1 18.9-80.2 31.6-123 30.4-33.9-0.8-68.2-10.3-95.9-30.1-5.8-4.6-14.2-6.2-20.5-1.7z"/>
		<path id="Path 2" class="s1" d="m792.1 253.4c3.6 4.6 4.2 10.6 5.8 16 3.9 15.1 8.7 29.9 12.6 45 1.3 3.1 1.3 7.9 5.3 9.1 16.9 6.6 34.6 11 51.1 18.5-17.7 7.4-37.4 11.4-54.1 20.7-7.1 20.1-13.1 40.7-19.3 61.1-9.1-20-13.5-41.8-21-62.4-18-6.7-36.1-12.7-54-19.6 17.7-7.3 36.1-12.6 54-19.3 6.6-23 13.4-46 19.6-69.1zm-473.2 63.7c4-3.3 9.8-1.8 14.5-2.3 33.8 0.5 67.7-0.6 101.4 0.4 13 1.9 12 22.6-1 23.4-36.5 0.3-73 0.3-109.5 0-10.5-0.6-14.9-16-5.4-21.5zm240.9-0.5c4.1-2.7 9.6-1.3 14.3-1.8 33 0.3 66-0.2 98.9 0.2 9.3-0.3 15.6 12.2 9 19.1-3.3 5.2-10 4.7-15.4 4.8-33.8-0.4-67.5 0.1-101.3-0.2-11.4 0.2-15.9-16.8-5.5-22.1zm-197.4 59.5c15.5-6.4 35.2 5.8 35.3 22.7 0.3 34.1 0 68.1 0.2 102.2 1.5 15.1-12.5 29-27.5 27.7-14.3-0.1-26.2-13.6-25.4-27.7q0-49.3 0-98.7c-0.6-11.4 6.8-22.3 17.4-26.2zm256.1 5.9c11-3.6 23.7 0.9 30.1 10.5 5.4 7.2 4.5 16.7 4.6 25.1-0.3 30.8 0.2 61.6-0.2 92.4 0 16-17.4 28.9-32.7 24.4-11-2.7-20.1-13-20-24.5-0.2-33.9 0-67.7-0.1-101.6-0.8-11.6 7.4-22.7 18.3-26.3zm-382.9 62c33.5-7.4 69.2 17.4 74.2 51.2 4.6 24.8-7.4 51.4-28.9 64.5-23.2 14.9-56.3 11.9-76-7.4-17.6-15.6-24.8-41.5-17.9-64 6.2-22.3 25.8-40.1 48.6-44.3zm503.4-0.1c31-6.5 64 14.1 72.3 44.5 7.3 24.3-1.7 52.2-21.9 67.5-21 16.8-53 17.7-74.8 1.9-19.9-13.7-30.9-39.3-26-63.2 4.2-25.1 25.3-46.2 50.4-50.7zm-367.6 172.6c6.3-4.5 14.7-2.9 20.5 1.7 27.7 19.8 62 29.3 95.9 30.1 42.8 1.2 84.9-11.5 123-30.4 8.5-5 20.1-1.3 24.5 7.5 5.2 8.7 0.4 20.8-8.8 24.6-47.4 23.9-101 37.9-154.4 33.2-36.3-3.4-72.7-14.7-102-36.8-10.7-6.9-9.7-23.8 1.3-29.9z"/>
	</g>
</svg>